<svg width="120" height="80" viewBox="0 0 120 80" xmlns="http://www.w3.org/2000/svg">
  <defs>
    <linearGradient id="heart1" x1="0%" y1="0%" x2="100%" y2="100%">
      <stop offset="0%" style="stop-color:#e11d48;stop-opacity:1" />
      <stop offset="50%" style="stop-color:#ec4899;stop-opacity:1" />
      <stop offset="100%" style="stop-color:#f97316;stop-opacity:1" />
    </linearGradient>
    <linearGradient id="heart2" x1="0%" y1="0%" x2="100%" y2="100%">
      <stop offset="0%" style="stop-color:#7c3aed;stop-opacity:1" />
      <stop offset="50%" style="stop-color:#c026d3;stop-opacity:1" />
      <stop offset="100%" style="stop-color:#ec4899;stop-opacity:1" />
    </linearGradient>
    <filter id="dropshadow" x="-50%" y="-50%" width="200%" height="200%">
      <feGaussianBlur in="SourceAlpha" stdDeviation="2"/>
      <feOffset dx="1" dy="2" result="offset" />
      <feComponentTransfer>
        <feFuncA type="linear" slope="0.4"/>
      </feComponentTransfer>
      <feMerge> 
        <feMergeNode/>
        <feMergeNode in="SourceGraphic"/> 
      </feMerge>
    </filter>
  </defs>
  
  <!-- First Heart (Pink/Red gradient) -->
  <path d="M30 40 C30 28, 42 22, 50 28 C58 22, 70 28, 70 40 C70 58, 50 70, 50 70 C50 70, 30 58, 30 40 Z" 
        fill="url(#heart1)" 
        filter="url(#dropshadow)"
        transform="rotate(-20 50 45) scale(0.8)"/>
  
  <!-- Second Heart (Purple/Pink gradient) - Interlocked -->
  <path d="M40 25 C40 13, 52 7, 60 13 C68 7, 80 13, 80 25 C80 43, 60 55, 60 55 C60 55, 40 43, 40 25 Z" 
        fill="url(#heart2)" 
        filter="url(#dropshadow)"
        transform="rotate(20 60 30) scale(0.8)"/>
</svg>